<svg width="548" height="352" viewBox="0 0 548 352" fill="none" xmlns="http://www.w3.org/2000/svg">
<g clip-path="url(#clip0_1_2)">
<path d="M71.9927 117.082C65.9704 117.082 59.9814 117.336 54.0391 117.85C48.0901 118.358 42.3343 119.895 36.7783 122.454C31.0558 125.013 26.3126 128.588 22.522 133.185C18.7381 137.789 16.8528 143.502 16.8528 150.318C16.8528 151.681 17.0793 153.511 17.5456 155.81C18.0053 158.115 18.9313 160.374 20.3236 162.592C21.7159 164.804 23.6811 166.675 26.2326 168.205C28.7841 169.742 32.2149 170.51 36.5451 170.51C40.0959 170.51 43.7266 169.575 47.4305 167.697C51.1412 165.826 54.6187 163.608 57.8563 161.049C61.1006 158.496 63.9585 155.937 66.4301 153.385C68.9016 150.825 70.7536 148.781 71.9927 147.251V117.082ZM72.4524 91.5235C72.4524 89.4722 72.3391 87.2605 72.1126 84.875C71.8728 82.4896 71.1 80.2712 69.7943 78.2332C68.4819 76.1819 66.3501 74.4379 63.4189 72.9879C60.4811 71.5447 56.384 70.8163 51.1412 70.8163C44.8058 70.8163 39.0566 72.0525 33.8737 74.5248C28.7042 76.9971 23.3347 80.191 17.7721 84.1066L11.2902 68.0032C15.9201 65.6178 19.9772 63.66 23.4546 62.1232C26.9255 60.593 30.2097 59.3502 33.2942 58.4214C36.3852 57.4793 39.3964 56.8378 42.3343 56.5037C45.2655 56.1629 48.4365 55.9825 51.834 55.9825C53.0664 55.9825 54.6919 56.0293 56.6971 56.1161C58.709 56.203 60.8674 56.5037 63.1924 57.0115C65.5041 57.5193 67.8557 58.2878 70.254 59.3101C72.6522 60.3324 74.9239 61.7022 77.089 63.3994C79.8736 65.6178 81.9921 67.9231 83.4643 70.3018C84.9233 72.6873 86.0092 75.0326 86.702 77.3379C87.4015 79.6364 87.7812 81.8548 87.8611 83.9797C87.9411 86.1112 87.9744 88.0289 87.9744 89.7328V157.474C87.9744 160.888 88.4008 163.401 89.2535 165.018C90.0995 166.635 90.9123 167.784 91.685 168.466C92.7642 169.321 93.7768 169.835 94.6962 170.002C95.6222 170.169 97.7073 170.256 100.958 170.256V184.315C96.6281 184.315 93.1506 184.188 90.5259 183.934C87.9011 183.674 85.5029 182.865 83.3444 181.502C81.7989 180.48 80.4532 179.163 79.294 177.54C78.1349 175.923 77.2022 174.219 76.5094 172.428C75.8099 170.644 75.2703 168.893 74.8906 167.189C74.4975 165.485 74.311 164.122 74.311 163.1C74.311 161.737 74.2311 160.795 74.0712 160.287C73.918 160.287 73.8047 160.247 73.7314 160.153C73.6515 160.073 73.5316 160.033 73.385 160.033C73.0719 160.033 72.8387 160.113 72.6855 160.287C69.9075 163.862 67.0896 167.102 64.2317 170.002C61.3671 172.902 58.3959 175.368 55.3115 177.413C52.2137 179.457 48.8562 181.081 45.2255 182.27C41.6015 183.46 37.5444 184.054 33.0677 184.054C26.2726 184.054 21.1363 183.039 17.6589 180.987C14.1814 178.949 11.3634 176.644 9.19835 174.085C7.49959 172.047 6.10726 169.916 5.02805 167.697C3.94883 165.485 3.13609 163.354 2.60314 161.309C2.05687 159.258 1.67049 157.387 1.43733 155.683C1.21082 153.979 1.09091 152.616 1.09091 151.594C1.09091 145.801 1.97693 140.729 3.7623 136.386C5.52769 132.036 7.69944 128.374 10.2443 125.387C12.7957 122.414 15.4605 119.988 18.2384 118.104C21.0231 116.233 23.3347 114.87 25.1934 114.015C33.0677 110.266 40.8287 108.095 48.4765 107.493C56.1176 106.905 64.1118 106.605 72.4524 106.605V91.5235Z" fill="#000001"/>
<path d="M168.498 169.74C173.621 169.74 177.918 168.25 181.408 165.27C184.899 162.29 187.691 158.415 189.782 153.637C191.874 148.873 193.386 143.628 194.319 137.915C195.252 132.208 195.718 126.542 195.718 120.916C195.718 118.704 195.558 114.869 195.252 109.416C194.939 103.964 193.973 98.3778 192.34 92.6715C190.715 86.9584 188.077 81.9337 184.433 77.5904C180.789 73.2472 175.626 71.0689 168.957 71.0689C164.774 71.0689 160.783 72.2649 156.98 74.6504C153.182 77.0358 149.845 80.4436 146.987 84.8737C144.109 89.3105 141.864 94.6359 140.232 100.85C138.606 107.071 137.793 114.013 137.793 121.684C137.793 127.484 138.453 133.231 139.772 138.944C141.091 144.65 143.063 149.808 145.701 154.406C148.339 159.009 151.55 162.711 155.354 165.524C159.158 168.337 163.535 169.74 168.498 169.74ZM138.027 1.28314V78.9936C138.027 79.5081 138.173 80.0159 138.486 80.5238C138.793 81.045 139.186 81.2989 139.645 81.2989C140.418 81.2989 140.918 81.0784 141.158 80.6574C141.384 80.2298 141.651 79.6752 141.964 78.9936C143.043 76.7819 144.355 74.3564 145.901 71.7104C147.446 69.071 149.338 66.6388 151.577 64.4204C153.815 62.2087 156.48 60.3779 159.571 58.9279C162.662 57.4779 166.439 56.7563 170.923 56.7563C173.861 56.7563 177.605 57.4378 182.161 58.7942C186.711 60.1707 191.121 63.0172 195.365 67.3671C199.615 71.7103 203.246 77.9713 206.257 86.1499C209.268 94.3353 210.78 105.32 210.78 119.132C210.78 121.343 210.694 124.237 210.547 127.825C210.387 131.4 209.968 135.275 209.268 139.451C208.575 143.628 207.609 147.931 206.377 152.354C205.138 156.798 203.512 160.887 201.507 164.629C199.036 169.233 196.331 172.854 193.4 175.494C190.462 178.14 187.564 180.057 184.713 181.247C181.848 182.436 179.183 183.164 176.712 183.418C174.24 183.672 172.162 183.799 170.463 183.799C166.906 183.799 163.741 183.245 160.963 182.135C158.179 181.033 155.707 179.623 153.549 177.926C151.384 176.222 149.525 174.384 147.986 172.427C146.441 170.469 145.128 168.638 144.049 166.927C143.896 166.587 143.589 166.032 143.116 165.27C142.657 164.502 142.197 163.7 141.731 162.845C141.264 161.989 140.805 161.228 140.338 160.54C139.879 159.858 139.566 159.517 139.419 159.517C139.106 159.517 138.719 159.604 138.253 159.778C137.793 159.945 137.56 160.707 137.56 162.076V185.082L122.731 175.881V10.4841L138.027 1.28314Z" fill="#000001"/>
<path d="M298.124 106.602V102.005C298.124 100.127 297.971 98.0825 297.665 95.8708C297.351 93.6591 296.885 91.3538 296.272 88.9617C295.653 86.5829 294.727 84.2777 293.494 82.0593C291.176 77.8029 288.165 74.776 284.454 72.992C280.75 71.1945 277.119 70.2992 273.562 70.2992C266.92 70.2992 260.978 73.0721 255.728 78.6114C250.472 84.1507 247.301 93.4787 246.229 106.602H298.124ZM245.762 118.877C245.762 124.496 246.109 130.296 246.808 136.249C247.494 142.223 248.927 147.669 251.092 152.62C253.257 157.558 256.268 161.607 260.125 164.754C263.989 167.915 269.085 169.485 275.421 169.485C280.67 169.485 285.267 168.336 289.204 166.037C293.141 163.739 296.732 160.371 299.976 155.941L310.635 165.142C305.692 171.958 300.482 176.775 294.993 179.588C289.51 182.401 282.835 183.805 274.954 183.805C267.54 183.805 261.058 182.061 255.495 178.566C249.933 175.071 245.296 170.474 241.592 164.754C237.888 159.055 235.063 152.62 233.131 145.457C231.2 138.301 230.24 131.058 230.24 123.728C230.24 116.231 230.813 108.52 231.972 100.595C233.131 92.6702 235.876 84.8724 240.206 77.2082C244.683 69.3704 249.893 63.9113 255.842 60.8443C261.784 57.7773 267.926 56.2471 274.262 56.2471C282.749 56.2471 289.55 58.1181 294.653 61.8666C299.743 65.6151 303.687 70.4796 306.465 76.4331C309.249 82.4068 311.101 89.1354 312.027 96.6325C312.953 104.136 313.566 111.547 313.879 118.877H245.762Z" fill="#000001"/>
<path d="M340.06 156.194C344.23 160.284 348.787 163.738 353.73 166.551C358.666 169.364 364.069 170.767 369.945 170.767C377.672 170.767 383.535 168.81 387.559 164.887C391.569 160.972 393.574 156.027 393.574 150.06C393.574 145.797 392.455 142.095 390.217 138.942C387.978 135.788 385.08 133.362 381.536 131.652C380.75 131.311 378.985 130.549 376.2 129.353C373.422 128.164 370.371 126.801 367.053 125.264C363.729 123.734 360.565 122.284 357.554 120.921C354.543 119.557 352.411 118.528 351.178 117.854C350.252 117.339 348.9 116.531 347.128 115.421C345.349 114.312 343.61 112.695 341.912 110.564C340.206 108.439 338.707 105.753 337.395 102.512C336.076 99.2712 335.423 95.3556 335.423 90.7518C335.423 85.306 336.276 80.4416 337.975 76.1785C339.667 71.9288 342.025 68.3073 345.036 65.3138C348.047 62.3403 351.638 60.0752 355.808 58.545C359.979 57.0082 364.462 56.2464 369.252 56.2464C375.427 56.2464 381.023 57.1017 386.046 58.7989C391.063 60.5095 396.279 62.8014 401.688 65.7013L396.825 80.7824C392.655 77.3746 388.171 74.6951 383.382 72.7307C378.592 70.7729 373.502 69.7906 368.093 69.7906C363.463 69.7906 359.206 71.2874 355.349 74.2608C351.485 77.2543 349.559 81.5508 349.559 87.1769C349.559 90.2439 350.019 92.8031 350.952 94.8411C351.871 96.8857 353.377 98.7634 355.469 100.467C357.554 102.171 360.332 103.882 363.802 105.579C367.28 107.289 371.563 109.247 376.666 111.459C380.99 113.337 385.007 115.208 388.718 117.078C392.415 118.963 395.626 121.261 398.331 123.988C401.029 126.714 403.114 129.954 404.586 133.703C406.052 137.445 406.785 142.222 406.785 148.016C406.785 154.15 405.779 159.475 403.767 163.992C401.768 168.509 399.097 172.211 395.779 175.111C392.455 178.011 388.518 180.182 383.968 181.632C379.404 183.076 374.581 183.804 369.485 183.804C362.217 183.804 355.968 182.782 350.719 180.737C345.462 178.692 339.907 175.365 334.037 170.767L340.06 156.194Z" fill="#000001"/>
<path d="M483.673 271.545C474.226 267.262 467.138 262.799 460.083 255.114C451.156 245.379 447.699 233.933 447.699 221.551C447.699 208.127 452.029 196.815 460.696 187.601C469.35 178.393 480.235 173.782 493.352 173.782C508.055 173.782 520.766 179.776 531.544 191.743C542.29 203.731 546.507 218.177 547.673 234.975C551.124 284.348 524.203 331.395 469.723 351.634L453.148 321.933C476.231 309.285 496.15 291.698 493.925 280.773C492.56 274.051 486.157 272.668 483.673 271.545Z" fill="#3D7EDB"/>
<path d="M497.425 -0.197566C511.335 -0.197566 523.02 4.5399 532.466 14.0148C541.913 23.4898 546.636 35.2031 546.636 49.1483C546.636 63.3607 541.833 75.5351 532.26 85.6648C522.68 95.7946 511.075 100.866 497.425 100.866C484.048 100.866 472.637 95.7946 463.19 85.6648C453.744 75.5351 449.02 63.3607 449.02 49.1483C449.02 34.9359 453.67 23.1624 462.984 13.8144C472.304 4.47976 483.789 -0.197566 497.425 -0.197566Z" fill="#0B2265"/>
<path d="M15.9504 276.423V247.962H12.4971V257.727L12.081 257.811C10.5832 256.267 9.04374 255.516 7.25467 255.516C3.01083 255.516 -0.151245 259.438 -0.151245 266.282C-0.151245 273.252 3.05244 277.049 7.33788 277.049C9.16856 277.049 10.6248 276.256 12.081 274.712L12.4971 274.879V276.423H15.9504ZM12.4971 271.916C11.0824 273.293 9.70943 274.003 8.21161 274.003C5.13275 274.003 3.4685 271.457 3.4685 266.324C3.4685 261.149 5.04953 258.562 8.21161 258.562C9.62622 258.562 10.9992 259.23 12.4971 260.607V271.916Z" fill="#4D4D4D"/>
<path d="M34.4814 267.242V263.779C34.4814 258.562 31.4025 255.516 26.9506 255.516C21.7498 255.516 18.3381 259.438 18.3381 266.491C18.3381 273.419 21.5834 277.049 27.5747 277.049C29.9879 277.049 32.1098 276.34 34.4814 275.171V271.708H33.0667C31.2777 273.293 29.6966 274.003 27.6163 274.003C23.8718 274.003 21.9579 271.749 21.9579 267.242H34.4814ZM21.9579 264.822C22.0411 260.231 23.7053 257.936 26.8258 257.936C30.1127 257.936 31.1113 260.148 31.1113 264.321V264.822H21.9579Z" fill="#4D4D4D"/>
<path d="M45.3586 247.962V276.423H48.8536V247.962H45.3586Z" fill="#4D4D4D"/>
<path d="M54.3338 248.588H51.4214V258.479H54.3338V248.588Z" fill="#4D4D4D"/>
<path d="M71.6348 267.242V263.779C71.6348 258.562 68.5559 255.516 64.104 255.516C58.9033 255.516 55.4915 259.438 55.4915 266.491C55.4915 273.419 58.7368 277.049 64.7281 277.049C67.1413 277.049 69.2632 276.34 71.6348 275.171V271.708H70.2202C68.4311 273.293 66.85 274.003 64.7697 274.003C61.0252 274.003 59.1113 271.749 59.1113 267.242H71.6348ZM59.1113 264.822C59.1945 260.231 60.8587 257.936 63.9792 257.936C67.2661 257.936 68.2647 260.148 68.2647 264.321V264.822H59.1113Z" fill="#4D4D4D"/>
<path d="M74.0498 256.142V276.423H77.5447V260.398C79.1674 259.063 80.582 258.437 82.0798 258.437C85.1171 258.437 85.6996 260.273 85.6996 264.238V276.423H89.1529V263.236C89.1529 257.894 86.9477 255.516 83.0784 255.516C81.0397 255.516 79.5418 256.1 77.9192 257.561L77.5863 257.477V256.142H74.0498Z" fill="#4D4D4D"/>
<path d="M91.1661 271.749V275.463C92.7888 276.465 95.0771 277.049 97.9896 277.049C102.233 277.049 105.104 274.42 105.104 270.623C105.104 267.701 103.274 265.698 99.6954 264.655C96.575 263.779 94.7859 263.194 94.7859 260.941C94.7859 259.272 96.2837 257.978 98.1144 257.978C100.153 257.978 101.609 258.896 102.691 260.899H104.314V256.851C102.275 256.058 100.361 255.641 98.4888 255.641C93.9538 255.641 91.291 258.145 91.291 261.483C91.291 264.446 93.1216 266.116 96.7414 267.326C99.9035 268.327 101.651 268.786 101.651 271.165C101.651 273.085 100.111 274.42 97.7399 274.42C95.7012 274.42 93.9538 273.502 92.9552 271.749H91.1661Z" fill="#4D4D4D"/>
<path d="M122.152 267.242V263.779C122.152 258.562 119.073 255.516 114.621 255.516C109.42 255.516 106.008 259.438 106.008 266.491C106.008 273.419 109.254 277.049 115.245 277.049C117.658 277.049 119.78 276.34 122.152 275.171V271.708H120.737C118.948 273.293 117.367 274.003 115.287 274.003C111.542 274.003 109.628 271.749 109.628 267.242H122.152ZM109.628 264.822C109.711 260.231 111.376 257.936 114.496 257.936C117.783 257.936 118.782 260.148 118.782 264.321V264.822H109.628Z" fill="#4D4D4D"/>
<path d="M124.4 247.962V251.343H128.811V247.962H124.4ZM128.186 256.142H124.692V276.423H128.186V256.142Z" fill="#4D4D4D"/>
<path d="M143.735 269.83C142.279 271.04 140.906 271.624 139.45 271.624C136.371 271.624 134.707 269.371 134.707 264.864C134.707 260.482 136.413 258.145 139.45 258.145C140.989 258.145 142.321 258.729 143.735 259.939V269.83ZM147.189 256.142H143.735V257.435L143.319 257.561C141.822 256.142 140.407 255.516 138.576 255.516C134.208 255.516 131.129 258.896 131.129 264.989C131.129 270.789 134.208 274.253 138.535 274.253C140.324 274.253 141.822 273.627 143.361 272.292L143.735 272.333C143.777 272.834 143.777 273.335 143.777 273.794C143.777 277.8 142.446 279.637 139.076 279.637C136.33 279.637 134.499 278.885 132.793 276.757H131.337V280.93C133.833 282.182 136.538 282.808 138.951 282.808C142.362 282.808 145.108 281.473 146.19 279.47C147.147 277.675 147.189 275.505 147.189 272.5V256.142Z" fill="#4D4D4D"/>
<path d="M150.741 256.142V276.423H154.236V260.398C155.859 259.063 157.274 258.437 158.771 258.437C161.809 258.437 162.391 260.273 162.391 264.238V276.423H165.845V263.236C165.845 257.894 163.639 255.516 159.77 255.516C157.731 255.516 156.233 256.1 154.611 257.561L154.278 257.477V256.142H150.741Z" fill="#4D4D4D"/>
<path d="M184.334 267.242V263.779C184.334 258.562 181.255 255.516 176.803 255.516C171.602 255.516 168.191 259.438 168.191 266.491C168.191 273.419 171.436 277.049 177.427 277.049C179.84 277.049 181.962 276.34 184.334 275.171V271.708H182.919C181.13 273.293 179.549 274.003 177.469 274.003C173.724 274.003 171.81 271.749 171.81 267.242H184.334ZM171.81 264.822C171.894 260.231 173.558 257.936 176.678 257.936C179.965 257.936 180.964 260.148 180.964 264.321V264.822H171.81Z" fill="#4D4D4D"/>
<path d="M186.79 256.142V276.423H190.285V260.398C191.7 259.063 193.031 258.437 194.612 258.437C197.442 258.437 198.315 260.273 198.315 264.071V276.423H201.81V260.357C203.433 259.063 204.889 258.437 206.345 258.437C209.632 258.437 209.84 261.692 209.84 264.238V276.423H213.335V263.236C213.335 258.103 211.213 255.516 207.261 255.516C204.598 255.516 202.934 256.476 201.145 258.812C200.104 256.642 198.149 255.516 195.528 255.516C193.614 255.516 192.158 256.142 190.701 257.561L190.285 257.477V256.142H186.79Z" fill="#4D4D4D"/>
<path d="M231.881 267.242V263.779C231.881 258.562 228.802 255.516 224.35 255.516C219.149 255.516 215.737 259.438 215.737 266.491C215.737 273.419 218.983 277.049 224.974 277.049C227.387 277.049 229.509 276.34 231.881 275.171V271.708H230.466C228.677 273.293 227.096 274.003 225.015 274.003C221.271 274.003 219.357 271.749 219.357 267.242H231.881ZM219.357 264.822C219.44 260.231 221.105 257.936 224.225 257.936C227.512 257.936 228.51 260.148 228.51 264.321V264.822H219.357Z" fill="#4D4D4D"/>
<path d="M234.296 256.142V276.423H237.79V260.398C239.413 259.063 240.828 258.437 242.326 258.437C245.363 258.437 245.945 260.273 245.945 264.238V276.423H249.399V263.236C249.399 257.894 247.193 255.516 243.324 255.516C241.285 255.516 239.788 256.1 238.165 257.561L237.832 257.477V256.142H234.296Z" fill="#4D4D4D"/>
<path d="M254.449 270.915C254.449 275.922 254.948 276.423 259.983 276.423H262.479V274.045H260.94C258.027 274.045 257.902 273.711 257.902 270.748V258.562H262.479V256.142H257.902V250.717H254.449V256.142H250.913V258.562H254.449V270.915Z" fill="#4D4D4D"/>
<path d="M270.598 271.749V275.463C272.221 276.465 274.509 277.049 277.421 277.049C281.665 277.049 284.536 274.42 284.536 270.623C284.536 267.701 282.705 265.698 279.127 264.655C276.007 263.779 274.218 263.194 274.218 260.941C274.218 259.272 275.716 257.978 277.546 257.978C279.585 257.978 281.041 258.896 282.123 260.899H283.746V256.851C281.707 256.058 279.793 255.641 277.921 255.641C273.386 255.641 270.723 258.145 270.723 261.483C270.723 264.446 272.554 266.116 276.173 267.326C279.335 268.327 281.083 268.786 281.083 271.165C281.083 273.085 279.543 274.42 277.172 274.42C275.133 274.42 273.386 273.502 272.387 271.749H270.598Z" fill="#4D4D4D"/>
<path d="M301.625 276.423V256.142H298.13V272.125C296.508 273.46 295.093 274.128 293.595 274.128C290.558 274.128 289.975 272.125 289.975 268.494V256.142H286.522V267.242C286.522 269.871 286.481 271.875 287.063 273.335C287.77 275.171 289.559 277.049 292.597 277.049C294.635 277.049 296.133 276.465 297.756 275.004L298.089 275.088V276.423H301.625Z" fill="#4D4D4D"/>
<path d="M305.136 256.142V282.808H308.59V274.837L309.006 274.754C310.504 276.298 312.043 277.049 313.832 277.049C318.117 277.049 321.196 273.168 321.196 266.324C321.196 259.355 318.034 255.516 313.749 255.516C311.918 255.516 310.462 256.309 309.006 257.853L308.59 257.686V256.142H305.136ZM308.59 260.649C310.004 259.272 311.377 258.562 312.875 258.562C315.954 258.562 317.618 261.108 317.618 266.241C317.618 271.415 316.037 274.003 312.875 274.003C311.46 274.003 310.046 273.335 308.59 271.958V260.649Z" fill="#4D4D4D"/>
<path d="M338.729 267.242V263.779C338.729 258.562 335.65 255.516 331.198 255.516C325.997 255.516 322.586 259.438 322.586 266.491C322.586 273.419 325.831 277.049 331.822 277.049C334.235 277.049 336.357 276.34 338.729 275.171V271.708H337.314C335.525 273.293 333.944 274.003 331.864 274.003C328.119 274.003 326.205 271.749 326.205 267.242H338.729ZM326.205 264.822C326.288 260.231 327.953 257.936 331.073 257.936C334.36 257.936 335.359 260.148 335.359 264.321V264.822H326.205ZM336.732 245.041H332.321C331.032 247.295 329.492 249.131 327.661 250.633V251.426H329.991C331.739 249.506 334.027 247.754 336.732 246.293V245.041Z" fill="#4D4D4D"/>
<path d="M341.144 256.142V276.423H344.639V265.156C344.639 261.275 345.762 260.231 349.798 260.231H351.545V256.142H350.796C347.967 256.142 346.137 257.018 344.805 259.605L344.472 259.355C344.597 258.562 344.639 257.769 344.639 256.935V256.142H341.144Z" fill="#4D4D4D"/>
<path d="M352.643 247.962V251.343H357.053V247.962H352.643ZM356.429 256.142H352.934V276.423H356.429V256.142Z" fill="#4D4D4D"/>
<path d="M375.431 267.242V263.779C375.431 258.562 372.352 255.516 367.9 255.516C362.7 255.516 359.288 259.438 359.288 266.491C359.288 273.419 362.533 277.049 368.524 277.049C370.938 277.049 373.059 276.34 375.431 275.171V271.708H374.016C372.227 273.293 370.646 274.003 368.566 274.003C364.821 274.003 362.908 271.749 362.908 267.242H375.431ZM362.908 264.822C362.991 260.231 364.655 257.936 367.776 257.936C371.062 257.936 372.061 260.148 372.061 264.321V264.822H362.908Z" fill="#4D4D4D"/>
<path d="M392.908 276.423V256.142H389.413V272.125C387.79 273.46 386.375 274.128 384.878 274.128C381.84 274.128 381.258 272.125 381.258 268.494V256.142H377.805V267.242C377.805 269.871 377.763 271.875 378.345 273.335C379.053 275.171 380.842 277.049 383.879 277.049C385.918 277.049 387.416 276.465 389.038 275.004L389.371 275.088V276.423H392.908Z" fill="#4D4D4D"/>
<path d="M396.419 256.142V276.423H399.914V265.156C399.914 261.275 401.037 260.231 405.073 260.231H406.82V256.142H406.071C403.242 256.142 401.411 257.018 400.08 259.605L399.747 259.355C399.872 258.562 399.914 257.769 399.914 256.935V256.142H396.419Z" fill="#4D4D4D"/>
<path d="M15.6947 217.862C15.6947 213.188 13.2399 211.018 8.03914 211.018C5.95883 211.018 4.00333 211.435 1.92302 212.187V216.234H3.58726C4.91866 214.649 6.4997 213.856 8.20556 213.856C10.9516 213.856 12.2414 214.732 12.2414 217.32V218.571L10.1194 218.947C4.04493 220.116 0.799652 221.785 0.799652 226.125C0.799652 229.672 3.1296 232.301 6.79095 232.301C8.91287 232.301 10.7435 231.508 12.2414 229.964V231.8H15.6947V217.862ZM12.2414 227.544C10.8684 228.754 9.57857 229.338 8.16396 229.338C6.00043 229.338 4.461 227.836 4.461 225.916C4.461 223.204 6.95738 221.952 12.2414 220.908V227.544Z" fill="#4D4D4D"/>
<path d="M30.8133 225.207C29.3571 226.417 27.9841 227.001 26.5278 227.001C23.449 227.001 21.7847 224.748 21.7847 220.241C21.7847 215.859 23.4906 213.522 26.5278 213.522C28.0673 213.522 29.3987 214.106 30.8133 215.316V225.207ZM34.2666 211.519H30.8133V212.813L30.3972 212.938C28.8994 211.519 27.4848 210.893 25.6541 210.893C21.2855 210.893 18.2066 214.273 18.2066 220.366C18.2066 226.167 21.2855 229.63 25.6125 229.63C27.4016 229.63 28.8994 229.004 30.4388 227.669L30.8133 227.711C30.8549 228.211 30.8549 228.712 30.8549 229.171C30.8549 233.178 29.5235 235.014 26.1534 235.014C23.4074 235.014 21.5767 234.263 19.8709 232.134H18.4146V236.307C20.911 237.559 23.6154 238.185 26.0286 238.185C29.4403 238.185 32.1863 236.85 33.2681 234.847C34.225 233.052 34.2666 230.882 34.2666 227.878V211.519Z" fill="#4D4D4D"/>
<path d="M52.8391 222.619V219.156C52.8391 213.939 49.7603 210.893 45.3084 210.893C40.1076 210.893 36.6959 214.816 36.6959 221.868C36.6959 228.796 39.9412 232.426 45.9325 232.426C48.3457 232.426 50.4676 231.717 52.8391 230.548V227.085H51.4245C49.6355 228.671 48.0544 229.38 45.9741 229.38C42.2296 229.38 40.3157 227.126 40.3157 222.619H52.8391ZM40.3157 220.199C40.3989 215.609 42.0631 213.313 45.1836 213.313C48.4705 213.313 49.469 215.525 49.469 219.698V220.199H40.3157Z" fill="#4D4D4D"/>
<path d="M55.2542 211.519V231.8H58.7491V215.775C60.3718 214.44 61.7864 213.814 63.2842 213.814C66.3214 213.814 66.9039 215.65 66.9039 219.615V231.8H70.3573V218.613C70.3573 213.272 68.1521 210.893 64.2827 210.893C62.244 210.893 60.7462 211.477 59.1236 212.938L58.7907 212.854V211.519H55.2542Z" fill="#4D4D4D"/>
<path d="M87.7232 226.334H86.1422C84.894 228.295 83.3962 229.213 81.3991 229.213C78.237 229.213 76.2399 226.459 76.2399 221.534C76.2399 216.652 78.2786 213.939 81.4823 213.939C83.521 213.939 84.8524 214.857 86.1006 216.902H87.7232V212.854C85.6013 211.727 83.729 210.976 81.5655 210.976C76.3231 210.976 72.6618 215.066 72.6618 221.534C72.6618 228.337 76.2815 232.343 81.6487 232.343C83.7706 232.343 85.6845 231.675 87.7232 230.34V226.334Z" fill="#4D4D4D"/>
<path d="M104.575 222.619V219.156C104.575 213.939 101.496 210.893 97.0443 210.893C91.8435 210.893 88.4318 214.816 88.4318 221.868C88.4318 228.796 91.6771 232.426 97.6684 232.426C100.082 232.426 102.203 231.717 104.575 230.548V227.085H103.16C101.371 228.671 99.7903 229.38 97.71 229.38C93.9654 229.38 92.0515 227.126 92.0515 222.619H104.575ZM92.0515 220.199C92.1348 215.609 93.799 213.313 96.9195 213.313C100.206 213.313 101.205 215.525 101.205 219.698V220.199H92.0515Z" fill="#4D4D4D"/>
<path d="M118.656 203.339H115.161V231.8H118.656V230.256L119.03 230.131C120.487 231.675 122.026 232.426 123.815 232.426C128.101 232.426 131.263 228.629 131.263 221.66C131.263 214.816 128.142 210.893 123.857 210.893C122.068 210.893 120.528 211.644 119.03 213.188L118.656 213.105V203.339ZM118.656 215.984C120.112 214.607 121.485 213.939 122.9 213.939C126.062 213.939 127.643 216.527 127.643 221.701C127.643 226.834 126.02 229.38 122.941 229.38C121.444 229.38 120.071 228.671 118.656 227.293V215.984Z" fill="#4D4D4D"/>
<path d="M133.567 203.339V206.72H137.977V203.339H133.567ZM137.353 211.519H133.858V231.8H137.353V211.519Z" fill="#4D4D4D"/>
<path d="M144.831 203.339H141.336V231.8H144.831V230.256L145.205 230.131C146.661 231.675 148.201 232.426 149.99 232.426C154.275 232.426 157.437 228.629 157.437 221.66C157.437 214.816 154.317 210.893 150.031 210.893C148.242 210.893 146.703 211.644 145.205 213.188L144.831 213.105V203.339ZM144.831 215.984C146.287 214.607 147.66 213.939 149.075 213.939C152.237 213.939 153.818 216.527 153.818 221.701C153.818 226.834 152.195 229.38 149.116 229.38C147.618 229.38 146.245 228.671 144.831 227.293V215.984Z" fill="#4D4D4D"/>
<path d="M160.443 203.339V231.8H163.938V203.339H160.443Z" fill="#4D4D4D"/>
<path d="M167.588 203.339V206.72H171.998V203.339H167.588ZM171.374 211.519H167.879V231.8H171.374V211.519Z" fill="#4D4D4D"/>
<path d="M182.762 210.893C177.645 210.893 174.191 214.899 174.191 221.326C174.191 228.337 177.395 232.426 182.887 232.426C188.254 232.426 191.541 228.504 191.541 221.576C191.541 214.732 188.296 210.893 182.762 210.893ZM182.804 213.814C186.174 213.814 187.963 216.443 187.963 221.534C187.963 226.751 186.008 229.505 182.887 229.505C179.6 229.505 177.77 226.751 177.77 221.368C177.77 216.401 179.684 213.814 182.804 213.814Z" fill="#4D4D4D"/>
<path d="M205.902 225.207C204.446 226.417 203.073 227.001 201.616 227.001C198.538 227.001 196.873 224.748 196.873 220.241C196.873 215.859 198.579 213.522 201.616 213.522C203.156 213.522 204.487 214.106 205.902 215.316V225.207ZM209.355 211.519H205.902V212.813L205.486 212.938C203.988 211.519 202.573 210.893 200.743 210.893C196.374 210.893 193.295 214.273 193.295 220.366C193.295 226.167 196.374 229.63 200.701 229.63C202.49 229.63 203.988 229.004 205.527 227.669L205.902 227.711C205.943 228.211 205.943 228.712 205.943 229.171C205.943 233.178 204.612 235.014 201.242 235.014C198.496 235.014 196.665 234.263 194.959 232.134H193.503V236.307C196 237.559 198.704 238.185 201.117 238.185C204.529 238.185 207.275 236.85 208.357 234.847C209.314 233.052 209.355 230.882 209.355 227.878V211.519Z" fill="#4D4D4D"/>
<path d="M212.908 211.519V231.8H216.403V220.533C216.403 216.652 217.526 215.608 221.562 215.608H223.309V211.519H222.561C219.731 211.519 217.901 212.395 216.569 214.983L216.236 214.732C216.361 213.939 216.403 213.146 216.403 212.312V211.519H212.908Z" fill="#4D4D4D"/>
<path d="M237.887 217.862C237.887 213.188 235.432 211.018 230.232 211.018C228.151 211.018 226.196 211.435 224.116 212.187V216.234H225.78C227.111 214.649 228.692 213.856 230.398 213.856C233.144 213.856 234.434 214.732 234.434 217.32V218.571L232.312 218.947C226.237 220.116 222.992 221.785 222.992 226.125C222.992 229.672 225.322 232.301 228.983 232.301C231.105 232.301 232.936 231.508 234.434 229.964V231.8H237.887V217.862ZM234.434 227.544C233.061 228.754 231.771 229.338 230.356 229.338C228.193 229.338 226.654 227.836 226.654 225.916C226.654 223.204 229.15 221.952 234.434 220.908V227.544Z" fill="#4D4D4D"/>
<path d="M240.627 211.519V238.185H244.08V230.215L244.496 230.131C245.994 231.675 247.533 232.426 249.322 232.426C253.608 232.426 256.687 228.545 256.687 221.701C256.687 214.732 253.525 210.893 249.239 210.893C247.408 210.893 245.952 211.686 244.496 213.23L244.08 213.063V211.519H240.627ZM244.08 216.026C245.495 214.649 246.868 213.939 248.365 213.939C251.444 213.939 253.108 216.485 253.108 221.618C253.108 226.793 251.527 229.38 248.365 229.38C246.951 229.38 245.536 228.712 244.08 227.335V216.026Z" fill="#4D4D4D"/>
<path d="M259.199 203.339V231.8H262.694V215.734C264.317 214.44 265.731 213.814 267.229 213.814C270.391 213.814 270.849 215.65 270.849 220.324V231.8H274.302V218.738C274.302 212.938 271.723 210.893 268.228 210.893C266.189 210.893 264.691 211.477 263.069 212.938L262.694 212.854V203.339H259.199Z" fill="#4D4D4D"/>
<path d="M277.605 203.339V206.72H282.016V203.339H277.605ZM281.392 211.519H277.897V231.8H281.392V211.519Z" fill="#4D4D4D"/>
<path d="M296.94 238.185H300.435V211.519H296.94V213.063L296.524 213.23C294.943 211.561 293.487 210.893 291.781 210.893C287.537 210.893 284.334 214.732 284.334 221.701C284.334 228.545 287.496 232.426 291.74 232.426C293.529 232.426 295.068 231.675 296.566 230.131L296.94 230.215V238.185ZM296.94 227.335C295.443 228.712 294.07 229.38 292.655 229.38C289.493 229.38 287.954 226.793 287.954 221.618C287.954 216.485 289.576 213.939 292.655 213.939C294.153 213.939 295.526 214.649 296.94 216.026V227.335Z" fill="#4D4D4D"/>
<path d="M319.008 231.8V211.519H315.513V227.502C313.89 228.837 312.476 229.505 310.978 229.505C307.941 229.505 307.358 227.502 307.358 223.871V211.519H303.905V222.619C303.905 225.248 303.863 227.252 304.446 228.712C305.153 230.548 306.942 232.426 309.979 232.426C312.018 232.426 313.516 231.842 315.139 230.381L315.471 230.465V231.8H319.008Z" fill="#4D4D4D"/>
<path d="M337.539 222.619V219.156C337.539 213.939 334.46 210.893 330.008 210.893C324.807 210.893 321.396 214.816 321.396 221.868C321.396 228.796 324.641 232.426 330.632 232.426C333.045 232.426 335.167 231.717 337.539 230.548V227.085H336.124C334.335 228.671 332.754 229.38 330.674 229.38C326.929 229.38 325.015 227.126 325.015 222.619H337.539ZM325.015 220.199C325.099 215.609 326.763 213.313 329.883 213.313C333.17 213.313 334.169 215.525 334.169 219.698V220.199H325.015Z" fill="#4D4D4D"/>
</g>
<defs>
<clipPath id="clip0_1_2">
<rect width="548" height="352" fill="white"/>
</clipPath>
</defs>
</svg>
